<svg xmlns="http://www.w3.org/2000/svg" width="14" height="17" viewBox="0 0 14 17">
  <defs>
    <style>
      .cls-1 {
        fill: #66839a;
        fill-rule: evenodd;
      }
    </style>
  </defs>
  <path id="map" class="cls-1" d="M850,300a6.916,6.916,0,0,0-7,6.814,6.556,6.556,0,0,0,.124,1.28c0,0.025.019,0.1,0.048,0.228a6.584,6.584,0,0,0,.468,1.343,19.192,19.192,0,0,0,6.049,7.228,0.505,0.505,0,0,0,.622,0,19.222,19.222,0,0,0,6.049-7.228,6.561,6.561,0,0,0,.468-1.343c0.029-.129.044-0.2,0.047-0.228a6.8,6.8,0,0,0,.125-1.28A6.927,6.927,0,0,0,850,300Zm0,10.253a3.365,3.365,0,1,1,3.455-3.364A3.414,3.414,0,0,1,850,310.253Z" transform="translate(-843 -300)"/>
</svg>
