<svg xmlns="http://www.w3.org/2000/svg" width="16" height="16" viewBox="0 0 16 16">
  <defs>
    <style>
      .cls-1 {
        fill: #65829a;
        fill-rule: evenodd;
      }
    </style>
  </defs>
  <path id="phone" class="cls-1" d="M854.652,488.911a1.578,1.578,0,0,0-1.144-.523,1.63,1.63,0,0,0-1.156.52l-1.069,1.064c-0.088-.048-0.176-0.092-0.26-0.135-0.122-.061-0.237-0.119-0.335-0.179a11.613,11.613,0,0,1-2.783-2.533,6.8,6.8,0,0,1-.913-1.439c0.277-.253.534-0.516,0.784-0.77,0.1-.094.19-0.192,0.284-0.287a1.547,1.547,0,0,0,0-2.336l-0.923-.922c-0.1-.1-0.213-0.213-0.314-0.321-0.2-.209-0.416-0.426-0.636-0.628a1.6,1.6,0,0,0-1.133-.5,1.659,1.659,0,0,0-1.15.5l-0.007.007-1.15,1.158a2.472,2.472,0,0,0-.734,1.57,5.919,5.919,0,0,0,.433,2.506,14.57,14.57,0,0,0,2.587,4.309,15.924,15.924,0,0,0,5.3,4.143,8.262,8.262,0,0,0,2.976.878c0.071,0,.145.007,0.213,0.007a2.547,2.547,0,0,0,1.951-.838,0.2,0.2,0,0,0,.014-0.016,7.685,7.685,0,0,1,.592-0.612c0.145-.138.294-0.283,0.439-0.435a1.683,1.683,0,0,0,.511-1.169,1.622,1.622,0,0,0-.521-1.158Zm-4-6.105a4.35,4.35,0,0,1,3.545,3.539,0.453,0.453,0,0,0,.449.378,0.514,0.514,0,0,0,.078-0.007,0.456,0.456,0,0,0,.376-0.526,5.26,5.26,0,0,0-4.289-4.282,0.458,0.458,0,0,0-.527.371A0.451,0.451,0,0,0,850.647,482.806Zm7.346,3.252a8.66,8.66,0,0,0-7.061-7.051,0.455,0.455,0,1,0-.149.9,7.734,7.734,0,0,1,6.31,6.3,0.455,0.455,0,0,0,.45.379,0.685,0.685,0,0,0,.078-0.007A0.448,0.448,0,0,0,857.993,486.058Z" transform="translate(-842 -479)"/>
</svg>
