<?xml version="1.0" encoding="UTF-8"?><!DOCTYPE svg PUBLIC "-//W3C//DTD SVG 1.1//EN" "http://www.w3.org/Graphics/SVG/1.1/DTD/svg11.dtd"><svg xmlns="http://www.w3.org/2000/svg"><defs>
        <style>
            .cls-1{fill:#d78920;fill-rule:evenodd}
        </style>
    
        <style>
            .cls-1{fill:#fff;fill-rule:evenodd}
        </style>
    
        <style>
            .cls-1{fill:#4e6e8a;fill-rule:evenodd;opacity:.8}
        </style>
    
        <style>
            .cls-1{fill:#66839a;fill-rule:evenodd}
        </style>
    
        <style>
            .cls-1{fill:#fff;fill-rule:evenodd}
        </style>
    
        <style>
            .cls-1{fill:#65829a;fill-rule:evenodd}
        </style>
    
        <style>
            .cls-1{fill:#4e6e8a;fill-rule:evenodd;opacity:.8}
        </style>
    </defs><symbol id="icon-arr-left_sm" viewBox="0 0 8 13">
    
    <path id="arr-left_sm" class="cls-1" d="M568 256.63l-1.4 1.37-6.6-6.494 1.395-1.374zm0-10.26l-1.4-1.37-6.6 6.494 1.395 1.374z" transform="translate(-560 -245)"/>
</symbol><symbol id="icon-close" viewBox="0 0 18.437 18.44">
    
    <path id="close" class="cls-1" d="M827.6 1118.85l1.415-1.42 17.013 17.02-1.414 1.41zm18.419 0l-1.415-1.42-17.013 17.02 1.414 1.41z" transform="translate(-827.594 -1117.44)"/>
</symbol><symbol id="icon-facebook" viewBox="0 0 10 19">
    <title>
        facebook
    </title>
    <path d="M9.766.157v2.946H8.014c-.64 0-1.071.134-1.295.402-.223.268-.335.67-.335 1.205v2.11h3.27l-.435 3.303H6.384v8.471H2.97v-8.47H.123V6.82H2.97V4.387c0-1.384.387-2.457 1.161-3.22C4.904.404 5.934.023 7.222.023c1.093 0 1.941.045 2.544.134z" fill-rule="evenodd"/>
</symbol><symbol id="icon-mail" viewBox="0 0 16.968 12.468">
    
    <path id="mail" class="cls-1" d="M843.073 404.166v-12.478h16.965v12.478h-16.965zm5.692-6.239l-4.871-4.871m.547-.547l6.184 6.184a1.1 1.1 0 0 0 1.861 0l6.185-6.184h-14.23zm14.776.547l-4.87 4.871" transform="translate(-843.063 -391.688)"/>
</symbol><symbol id="icon-map" viewBox="0 0 14 17">
    
    <path id="map" class="cls-1" d="M850 300a6.916 6.916 0 0 0-7 6.814 6.556 6.556 0 0 0 .124 1.28c0 .025.019.1.048.228a6.584 6.584 0 0 0 .468 1.343 19.192 19.192 0 0 0 6.049 7.228.505.505 0 0 0 .622 0 19.222 19.222 0 0 0 6.049-7.228 6.561 6.561 0 0 0 .468-1.343c.029-.129.044-.2.047-.228a6.8 6.8 0 0 0 .125-1.28 6.927 6.927 0 0 0-7-6.814zm0 10.253a3.365 3.365 0 1 1 3.455-3.364 3.414 3.414 0 0 1-3.455 3.364z" transform="translate(-843 -300)"/>
</symbol><symbol id="icon-open" viewBox="0 0 23 13">
    
    <path id="open" class="cls-1" d="M760.576 1121.01l1.431 1.44-11.489 11.54-1.431-1.44zm-20.153 0l-1.431 1.44 11.489 11.54 1.431-1.44z" transform="translate(-739 -1121)"/>
</symbol><symbol id="icon-phone" viewBox="0 0 16 16">
    
    <path id="phone" class="cls-1" d="M854.652 488.911a1.578 1.578 0 0 0-1.144-.523 1.63 1.63 0 0 0-1.156.52l-1.069 1.064c-.088-.048-.176-.092-.26-.135a4.605 4.605 0 0 1-.335-.179 11.613 11.613 0 0 1-2.783-2.533 6.8 6.8 0 0 1-.913-1.439c.277-.253.534-.516.784-.77.1-.094.19-.192.284-.287a1.547 1.547 0 0 0 0-2.336l-.923-.922c-.1-.1-.213-.213-.314-.321-.2-.209-.416-.426-.636-.628a1.6 1.6 0 0 0-1.133-.5 1.659 1.659 0 0 0-1.15.5l-.007.007-1.15 1.158a2.472 2.472 0 0 0-.734 1.57 5.919 5.919 0 0 0 .433 2.506 14.57 14.57 0 0 0 2.587 4.309 15.924 15.924 0 0 0 5.3 4.143 8.262 8.262 0 0 0 2.976.878c.071 0 .145.007.213.007a2.547 2.547 0 0 0 1.951-.838.2.2 0 0 0 .014-.016 7.685 7.685 0 0 1 .592-.612c.145-.138.294-.283.439-.435a1.683 1.683 0 0 0 .511-1.169 1.622 1.622 0 0 0-.521-1.158zm-4-6.105a4.35 4.35 0 0 1 3.545 3.539.453.453 0 0 0 .449.378.514.514 0 0 0 .078-.007.456.456 0 0 0 .376-.526 5.26 5.26 0 0 0-4.289-4.282.458.458 0 0 0-.527.371.451.451 0 0 0 .363.527zm7.346 3.252a8.66 8.66 0 0 0-7.061-7.051.455.455 0 1 0-.149.9 7.734 7.734 0 0 1 6.31 6.3.455.455 0 0 0 .45.379.685.685 0 0 0 .078-.007.448.448 0 0 0 .367-.521z" transform="translate(-842 -479)"/>
</symbol><symbol id="icon-search" viewBox="0 0 15.532 16.156">
    
    <path id="search" class="cls-1" d="M293.07 62.814l-3.828-4a6.482 6.482 0 1 0-4.969 2.333 6.4 6.4 0 0 0 3.72-1.182L291.849 64a.844.844 0 0 0 1.2.024.857.857 0 0 0 .021-1.21zm-8.8-13.032a4.828 4.828 0 1 1-4.8 4.828 4.819 4.819 0 0 1 4.803-4.828z" transform="translate(-277.781 -48.094)"/>
</symbol></svg>